# xmcd CD database file
#
# Track frame offsets:
#	150
#	19785
#	37730
#	56677
#	72992
#	90910
#	107342
#	126932
#	143545
#	167010
#
# Disc length: 2433 seconds
#
# Revision: 0
# Processed by: cddbd v1.5PL3 Copyright (c) Steve Scherf et al.
# Submitted via: CDex 1.51
#
DISCID=74097f0a
DTITLE=服部克久 - 音楽畑3
DYEAR=1986
DGENRE=Fusion
TTITLE0=彗星伝説
TTITLE1=フィレンツェ - 晩秋の街
TTITLE2=ル・プティ・ボヌール
TTITLE3=夢通り - 1950,ニューヨーク
TTITLE4=チボリ公園
TTITLE5=ル・ローヌ（河）
TTITLE6=渚にて
TTITLE7=イスタンブールのバラ
TTITLE8=修二会 - 火祭り
TTITLE9=帰郷
EXTD=YEAR: 1986
EXTT0=
EXTT1=
EXTT2=
EXTT3=
EXTT4=
EXTT5=
EXTT6=
EXTT7=
EXTT8=
EXTT9=
PLAYORDER=
